HIERARCHY
ROOT Hips
{
	OFFSET 0.00000 0.00000 0.00000
	CHANNELS 6 Xposition Yposition Zposition Zrotation Yrotation Xrotation 
	JOINT LHipJoint
	{
		OFFSET 0 0 0
		CHANNELS 3 Zrotation Yrotation Xrotation
		JOINT LeftHip
		{
			OFFSET 1.42489 -1.84941 0.69647
			CHANNELS 3 Zrotation Yrotation Xrotation
			JOINT LeftKnee
			{
				OFFSET 2.44443 -6.71602 0.00000
				CHANNELS 3 Zrotation Yrotation Xrotation
				JOINT LeftAnkle
				{
					OFFSET 2.62838 -7.22137 0.00000
					CHANNELS 3 Zrotation Yrotation Xrotation
					JOINT LeftToe
					{
						OFFSET 0.24036 -0.66037 2.29953
						CHANNELS 3 Zrotation Yrotation Xrotation
						End Site
						{
							OFFSET 0.00000 -0.00000 1.19837
						}
					}
				}
			}
		}
	}
	JOINT RHipJoint
	{
		OFFSET 0 0 0
		CHANNELS 3 Zrotation Yrotation Xrotation
		JOINT RightHip
		{
			OFFSET -1.37055 -1.84941 0.69647
			CHANNELS 3 Zrotation Yrotation Xrotation
			JOINT RightKnee
			{
				OFFSET -2.54834 -7.00152 0.00000
				CHANNELS 3 Zrotation Yrotation Xrotation
				JOINT RightAnkle
				{
					OFFSET -2.65692 -7.29983 0.00000
					CHANNELS 3 Zrotation Yrotation Xrotation
					JOINT RightToe
					{
						OFFSET -0.18839 -0.51760 2.29390
						CHANNELS 3 Zrotation Yrotation Xrotation
						End Site
						{
							OFFSET -0.00000 -0.00000 1.18261
						}
					}
				}
			}
		}
	}
	JOINT lowerback
	{
		OFFSET 0 0 0
		CHANNELS 3 Zrotation Yrotation Xrotation
		JOINT Chest
		{
			OFFSET 0.05220 2.15489 0.05011
			CHANNELS 3 Zrotation Yrotation Xrotation
			JOINT Chest2
			{
				OFFSET -0.07653 2.14219 -0.05668
				CHANNELS 3 Zrotation Yrotation Xrotation
				JOINT lowerneck
				{
					OFFSET 0 0 0
					CHANNELS 3 Zrotation Yrotation Xrotation
					JOINT Neck
					{
						OFFSET 0.01370 1.58638 0.01447
						CHANNELS 3 Zrotation Yrotation Xrotation
						JOINT Head
						{
							OFFSET 0.23548 1.54190 -0.21747
							CHANNELS 3 Zrotation Yrotation Xrotation
							End Site
							{
								OFFSET 0.07132 1.59823 -0.08163
							}
						}
					}
				}
				JOINT LeftCollar
				{
					OFFSET 0 0 0
					CHANNELS 3 Zrotation Yrotation Xrotation
					JOINT LeftShoulder
					{
						OFFSET 3.47056 1.45357 -0.58896
CHANNELS 3 Zrotation Xrotation Yrotation
						JOINT LeftElbow
						{
OFFSET 0 -5.190690 0.000000
CHANNELS 3 Zrotation Xrotation Yrotation
							JOINT LeftWrist
							{
OFFSET 0 -3.300160 0.000000
CHANNELS 3 Zrotation Xrotation Yrotation
								JOINT lhand
								{
									OFFSET 0 0 0
CHANNELS 3 Zrotation Xrotation Yrotation
									JOINT LFingers
									{
OFFSET 0 -0.707700 0.000000
CHANNELS 3 Zrotation Xrotation Yrotation
										End Site
										{
OFFSET 0 -0.570560 0.000000
										}
									}
								}
								JOINT LThumb
								{
OFFSET 0 0.000000 0.000000
CHANNELS 3 Zrotation Xrotation Yrotation
									End Site
									{
OFFSET 0 -0.579280 0.579280
									}
								}
							}
						}
					}
				}
				JOINT RightCollar
				{
					OFFSET 0 0 0
					CHANNELS 3 Zrotation Yrotation Xrotation
					JOINT RightShoulder
					{
						OFFSET -2.89018 2.03305 -0.26731
CHANNELS 3 Zrotation Xrotation Yrotation
						JOINT RightElbow
						{
OFFSET 0 -5.239240 0.000000
CHANNELS 3 Zrotation Xrotation Yrotation
							JOINT RightWrist
							{
OFFSET 0 -3.329530 0.000000
CHANNELS 3 Zrotation Xrotation Yrotation
								JOINT rhand
								{
									OFFSET 0 0 0
CHANNELS 3 Zrotation Xrotation Yrotation
									JOINT RFingers
									{
OFFSET 0 -0.607410 0.000000
CHANNELS 3 Zrotation Xrotation Yrotation
										End Site
										{
OFFSET 0 -0.489710 0.000000
										}
									}
								}
								JOINT RThumb
								{
OFFSET 0 0.000000 0.000000
CHANNELS 3 Zrotation Xrotation Yrotation
									End Site
									{
OFFSET 0 -0.497190 0.497190
									}
								}
							}
						}
					}
				}
			}
		}
	}
}
MOTION
Frames: 8
Frame Time: 0.008333333333333333
2.682782 13.115207 10.924363 5.544419 22.494143 30.258822 0.000000 0.000000 0.000000 -3.162825 16.174181 1.569234 0.809649 5.739485 16.031171 1.782374 20.007138 -38.823252 0.651628 -5.162840 -14.373748 0.000000 0.000000 0.000000 -22.240536 16.738352 -95.013491 -15.165026 -19.429992 75.733361 -0.141655 0.652340 -6.907791 -0.135644 2.373878 -6.540127 15.097777 -7.011554 25.602057 3.428877 -5.195226 14.259424 -3.372729 -1.699391 1.176153 -2.408109 -6.452241 6.559280 9.809795 -8.415591 -1.937734 3.847978 -4.397761 -1.204951 0.000000 0.000000 0.000000 165.293403 -37.478393 64.140930 18.396623 -28.660232 4.738864 0.750303 -18.773077 -10.499543 0.000000 0.000000 0.000000 -7.125000 0.000000 0.000000 -22.652225 39.409256 -3.309933 0.000000 0.000000 0.000000 -149.185898 -23.993575 -46.064978 -22.080276 -33.067374 -6.629624 -14.375194 0.238821 17.057099 0.000000 0.000000 0.000000 7.125000 0.000000 0.000000 12.885967 47.134848 -0.689638
2.628945 13.072311 11.092515 5.299803 21.802904 31.206628 0.000000 0.000000 0.000000 -3.771611 15.315261 2.819840 0.566513 4.818299 13.391542 1.714885 21.516085 -39.933722 0.531437 -4.670614 -12.971472 0.000000 0.000000 0.000000 -21.747507 16.777728 -96.664447 -15.498298 -19.506935 76.733042 -0.173654 2.073861 -7.425730 -0.122518 2.256506 -6.215076 15.279320 -6.961574 26.441961 3.706838 -4.892917 13.941910 -3.183750 -1.612201 0.487335 -2.821495 -5.993338 6.510287 9.407404 -7.794315 -3.097029 3.816297 -4.104183 -1.618905 0.000000 0.000000 0.000000 166.972588 -37.043324 70.179033 16.975602 -26.825040 4.076650 12.938977 -11.347947 -7.574384 0.000000 0.000000 0.000000 -7.125000 0.000000 0.000000 -11.804194 37.503101 -2.203055 0.000000 0.000000 0.000000 -150.928850 -24.142225 -48.778462 -21.465188 -32.367130 -6.297214 -13.372603 -0.307539 17.758510 0.000000 0.000000 0.000000 7.125000 0.000000 0.000000 14.048221 47.693413 -0.953071
2.576423 13.014137 11.252142 4.989826 20.946893 32.043642 0.000000 0.000000 0.000000 -4.274061 14.796709 3.949551 0.392057 4.018128 11.128025 1.633312 22.794445 -40.810661 0.429066 -4.202728 -11.647882 0.000000 0.000000 0.000000 -21.050176 16.837008 -98.366044 -15.854840 -19.582843 77.798890 -0.202739 3.728034 -8.038352 -0.118110 2.215351 -6.101273 15.253833 -6.916979 27.170724 3.774526 -4.677076 13.641839 -3.103866 -1.567159 -0.156786 -3.270971 -5.726567 6.436242 9.315002 -7.442567 -3.931680 3.889650 -3.938855 -1.892898 0.000000 0.000000 0.000000 167.821645 -36.065470 73.473321 16.544391 -26.253232 3.883646 22.063189 -8.185239 -4.945203 0.000000 0.000000 0.000000 -7.125000 0.000000 0.000000 -3.842068 35.288695 -0.909532 0.000000 0.000000 0.000000 -152.369755 -23.993597 -49.111828 -20.972109 -31.795787 -6.035264 -8.937444 -0.036207 18.890973 0.000000 0.000000 0.000000 7.125000 0.000000 0.000000 18.565840 48.177087 -1.504001
2.527741 12.946639 11.405061 4.459037 20.056401 32.704029 0.000000 0.000000 0.000000 -4.489526 14.481109 5.032145 0.265889 3.315785 9.159355 1.544530 23.919548 -41.545920 0.336583 -3.727441 -10.311110 0.000000 0.000000 0.000000 -20.027153 16.989960 -100.027820 -16.223245 -19.654492 78.896004 -0.230780 5.486949 -8.803622 -0.131633 2.338020 -6.440856 15.311670 -6.924275 28.146531 3.591755 -4.428211 13.130121 -3.063905 -1.516331 -0.921114 -3.324021 -5.764460 6.492132 9.350950 -7.469638 -4.511452 3.938393 -3.966948 -2.090581 0.000000 0.000000 0.000000 167.901281 -34.635124 73.946455 17.023874 -26.889097 4.098241 25.166571 -8.683470 -3.132480 0.000000 0.000000 0.000000 -7.125000 0.000000 0.000000 -1.177721 33.438198 -0.333426 0.000000 0.000000 0.000000 -153.331148 -23.955312 -48.481515 -20.829181 -31.628380 -5.960052 -5.379912 -0.768731 19.249994 0.000000 0.000000 0.000000 7.125000 0.000000 0.000000 21.962393 48.020937 -1.714329
2.484429 12.876216 11.550280 3.688302 19.108068 33.151151 0.000000 0.000000 0.000000 -4.488044 14.456893 6.134057 0.172858 2.675943 7.377935 1.469376 24.950211 -42.281554 0.232796 -3.101911 -8.562830 0.000000 0.000000 0.000000 -18.735596 17.343631 -101.569065 -16.582434 -19.717514 79.962269 -0.261761 7.178285 -9.718885 -0.175548 2.696921 -7.436195 15.202189 -6.714103 28.931548 3.581765 -4.010856 12.611979 -3.030070 -1.395260 -1.695934 -2.741977 -5.943281 6.972815 9.322014 -7.629471 -4.993732 3.869877 -4.075833 -2.351586 0.000000 0.000000 0.000000 167.789229 -33.283366 73.379437 17.735543 -27.817128 4.425240 22.287821 -10.719853 -2.631736 0.000000 0.000000 0.000000 -7.125000 0.000000 0.000000 -3.494706 32.809160 -1.044791 0.000000 0.000000 0.000000 -153.910761 -24.504124 -48.572433 -20.740709 -31.524391 -5.913807 -5.368676 -2.262962 19.101691 0.000000 0.000000 0.000000 7.125000 0.000000 0.000000 21.906663 47.881682 -1.631652
2.448380 12.810243 11.684086 2.717191 18.024260 33.395536 0.000000 0.000000 0.000000 -4.433687 14.648495 7.322440 0.104134 2.080160 5.727381 1.424093 26.001465 -43.194131 0.120865 -2.238587 -6.165511 0.000000 0.000000 0.000000 -17.311377 17.988585 -102.926413 -16.897943 -19.767666 80.896222 -0.302217 8.589807 -10.724049 -0.263514 3.301492 -9.119289 14.987742 -6.279798 29.779027 3.740541 -3.325615 11.969996 -2.899278 -1.168691 -2.614640 -1.818156 -5.963681 7.852617 9.171865 -7.529333 -5.535364 3.717889 -4.066272 -2.745768 0.000000 0.000000 0.000000 168.016436 -32.466489 73.773859 17.681154 -27.746881 4.399766 15.607064 -12.533540 -3.670127 0.000000 0.000000 0.000000 -7.125000 0.000000 0.000000 -9.003752 33.686482 -2.521920 0.000000 0.000000 0.000000 -154.521499 -25.589078 -50.094050 -20.220876 -30.907342 -5.644386 -7.119014 -2.855153 18.624888 0.000000 0.000000 0.000000 7.125000 0.000000 0.000000 20.115839 47.675206 -1.381009
2.422568 12.758078 11.801035 1.556696 16.765833 33.511149 0.000000 0.000000 0.000000 -4.423513 15.005465 8.270564 0.067654 1.677566 4.615350 1.481802 26.897580 -44.378354 0.036203 -1.211919 -3.332348 0.000000 0.000000 0.000000 -15.859861 18.984461 -104.080088 -17.120216 -19.799976 81.553060 -0.365815 9.380023 -11.777332 -0.425727 4.182297 -11.590841 14.773766 -5.664329 30.670646 4.066073 -2.405041 11.317731 -2.681357 -0.836144 -3.525941 -1.051566 -5.675478 8.651495 8.879643 -7.023248 -6.157663 3.530891 -3.847557 -3.180405 0.000000 0.000000 0.000000 168.602813 -32.174298 76.009348 16.446434 -26.120343 3.841479 7.265141 -13.306447 -6.032999 0.000000 0.000000 0.000000 -7.125000 0.000000 0.000000 -16.165763 35.645177 -3.829173 0.000000 0.000000 0.000000 -155.477280 -26.649685 -52.787144 -19.209293 -29.677015 -5.134497 -7.428767 -1.296478 18.213703 0.000000 0.000000 0.000000 7.125000 0.000000 0.000000 19.665056 47.329637 -1.173707
2.407204 12.728347 11.900007 0.323195 15.370185 33.688224 0.000000 0.000000 0.000000 -4.641727 15.230225 8.255856 0.078192 1.803654 4.963315 1.781746 27.428116 -46.100025 0.001604 -0.245813 -0.675342 0.000000 0.000000 0.000000 -14.531581 20.232920 -105.101411 -17.215397 -19.813091 81.833834 -0.467882 9.234294 -12.903603 -0.716084 5.406613 -15.072425 14.630027 -4.966610 31.422319 4.461668 -1.402893 10.816527 -2.476312 -0.448837 -4.216773 -0.702855 -5.203912 8.997244 8.417220 -6.342141 -6.782687 3.324063 -3.517751 -3.529309 0.000000 0.000000 0.000000 168.933281 -31.991085 78.940978 14.850596 -23.937345 3.165239 -0.710215 -13.102092 -8.617652 0.000000 0.000000 0.000000 -7.125000 0.000000 0.000000 -23.250223 37.566853 -4.554338 0.000000 0.000000 0.000000 -156.566004 -27.162286 -55.535307 -18.260064 -28.488814 -4.672702 -5.571158 1.522931 18.079262 0.000000 0.000000 0.000000 7.125000 0.000000 0.000000 21.283403 46.958336 -1.075662
